<mxfile host="app.diagrams.net" modified="2021-12-31T00:49:52.216Z" agent="5.0 (Windows)" etag="YHyJ6-3afhr9BoFjWVKq" version="16.1.2" type="github">
  <diagram name="Page-1" id="03018318-947c-dd8e-b7a3-06fadd420f32">
    <mxGraphModel dx="1422" dy="900" grid="1" gridSize="10" guides="1" tooltips="1" connect="1" arrows="1" fold="1" page="1" pageScale="1" pageWidth="1169" pageHeight="827" background="none" math="0" shadow="0">
      <root>
        <mxCell id="0" />
        <mxCell id="1" parent="0" />
        <mxCell id="677b7b8949515195-16" value="" style="verticalLabelPosition=bottom;shadow=0;dashed=0;align=center;html=1;verticalAlign=top;strokeWidth=1;shape=mxgraph.mockup.graphics.simpleIcon;strokeColor=#999999;rounded=0;labelBackgroundColor=none;fontFamily=Verdana;fontSize=14;fontColor=#000000;comic=1;" parent="1" vertex="1">
          <mxGeometry x="60" y="350" width="580" height="400" as="geometry" />
        </mxCell>
        <mxCell id="i1TGhDoqJdRgCCYyhsKo-1" value="" style="rounded=0;whiteSpace=wrap;html=1;fillColor=#865439;strokeColor=none;" vertex="1" parent="1">
          <mxGeometry x="50" y="40" width="1070" height="760" as="geometry" />
        </mxCell>
        <mxCell id="i1TGhDoqJdRgCCYyhsKo-2" value="&lt;font data-font-src=&quot;https://fontawesome.com&quot; style=&quot;font-size: 28px&quot; face=&quot;fontawesom6free&quot;&gt;logo&lt;/font&gt;" style="ellipse;whiteSpace=wrap;html=1;fillColor=#865439;" vertex="1" parent="1">
          <mxGeometry x="120" y="80" width="170" height="130" as="geometry" />
        </mxCell>
        <mxCell id="i1TGhDoqJdRgCCYyhsKo-4" value="&lt;div&gt;&lt;font color=&quot;#FFA372&quot;&gt;Etablerat sedan 2000&lt;/font&gt;&lt;/div&gt;&lt;div&gt;&lt;font color=&quot;#FFA372&quot;&gt;&quot;Thailand är närmare än du tror&quot;&lt;br&gt;&lt;/font&gt;&lt;/div&gt;" style="rounded=0;whiteSpace=wrap;html=1;fontFamily=fontawesom6free;fontSource=https%3A%2F%2Ffontawesome.com;fontSize=28;fillColor=#865439;strokeColor=none;" vertex="1" parent="1">
          <mxGeometry x="330" y="102.5" width="720" height="85" as="geometry" />
        </mxCell>
        <mxCell id="i1TGhDoqJdRgCCYyhsKo-5" value="" style="rounded=0;whiteSpace=wrap;html=1;fontFamily=fontawesom6free;fontSource=https%3A%2F%2Ffontawesome.com;fontSize=28;fontColor=#FFA372;fillColor=#333;" vertex="1" parent="1">
          <mxGeometry x="70" y="240" width="1040" height="80" as="geometry" />
        </mxCell>
        <mxCell id="i1TGhDoqJdRgCCYyhsKo-6" value="HITTA HIT" style="rounded=0;whiteSpace=wrap;html=1;fontFamily=fontawesom6free;fontSource=https%3A%2F%2Ffontawesome.com;fontSize=28;fontColor=#FFA372;fillColor=#333;strokeColor=none;" vertex="1" parent="1">
          <mxGeometry x="900" y="250" width="150" height="60" as="geometry" />
        </mxCell>
        <mxCell id="i1TGhDoqJdRgCCYyhsKo-7" value="KONTAKT" style="rounded=0;whiteSpace=wrap;html=1;fontFamily=fontawesom6free;fontSource=https%3A%2F%2Ffontawesome.com;fontSize=28;fontColor=#FFA372;fillColor=#333;strokeColor=none;" vertex="1" parent="1">
          <mxGeometry x="690" y="250" width="190" height="60" as="geometry" />
        </mxCell>
        <mxCell id="i1TGhDoqJdRgCCYyhsKo-8" value="MENY" style="rounded=0;whiteSpace=wrap;html=1;fontFamily=fontawesom6free;fontSource=https%3A%2F%2Ffontawesome.com;fontSize=28;fontColor=#FFA372;fillColor=#333;strokeColor=none;" vertex="1" parent="1">
          <mxGeometry x="560" y="250" width="120" height="60" as="geometry" />
        </mxCell>
        <mxCell id="i1TGhDoqJdRgCCYyhsKo-9" value="LUNCH" style="rounded=0;whiteSpace=wrap;html=1;fontFamily=fontawesom6free;fontSource=https%3A%2F%2Ffontawesome.com;fontSize=28;fontColor=#FFA372;fillColor=#333;strokeColor=none;" vertex="1" parent="1">
          <mxGeometry x="420" y="250" width="120" height="60" as="geometry" />
        </mxCell>
        <mxCell id="i1TGhDoqJdRgCCYyhsKo-10" value="AKTUELLT" style="rounded=0;whiteSpace=wrap;html=1;fontFamily=fontawesom6free;fontSource=https%3A%2F%2Ffontawesome.com;fontSize=28;fontColor=#FFA372;fillColor=#333;strokeColor=none;" vertex="1" parent="1">
          <mxGeometry x="230" y="250" width="160" height="60" as="geometry" />
        </mxCell>
        <mxCell id="i1TGhDoqJdRgCCYyhsKo-11" value="HEM" style="rounded=0;whiteSpace=wrap;html=1;fontFamily=fontawesom6free;fontSource=https%3A%2F%2Ffontawesome.com;fontSize=28;fontColor=#FFA372;fillColor=#333;strokeColor=none;" vertex="1" parent="1">
          <mxGeometry x="80" y="250" width="120" height="60" as="geometry" />
        </mxCell>
      </root>
    </mxGraphModel>
  </diagram>
</mxfile>
